<svg id="logo" xmlns="http://www.w3.org/2000/svg" viewBox="0 0 123.32 138"><defs><style>.cls-1{fill:#233950;}.cls-2{fill:#e75b00;}</style></defs><title>santana-ecorp</title><g id="Logo_SANTANA" data-name="Logo SANTANA"><path class="cls-1" d="M26.61,50.37V67.71l78.09-45L89.65,14ZM54.27,3.08S17.36,24.25,8.45,29.39.78,43.32.78,43.32V79.46S.73,91.26,7,95.51c9.77,6.65,20.93,1.91,20.93,1.91L101.46,55c6.82-2.16,7.35,4.86,7.35,4.86V93c0,3.11-3.63,5.11-3.63,5.11S69.77,118.54,64.4,121.66s-9.38.91-9.38.91L51,120.24c-4.62-2.67,1.56-5.95,1.56-5.95L97.14,88.42c2.72-1.57,9.08-5.23,4.79-11.65S88.58,76,88.58,76s-44.73,26.09-48.37,28c-21.3,11.38-4,21.58-4,21.58s10,5.57,18.77,10.64,15.06-.19,15.06-.19,40.43-23.35,47.65-27.5S124,95.51,124,95.51V42c0-4-2-9.32-5-11a6,6,0,0,0-5.68-.14L23.6,82.53c-7.53,1.7-7.47-4.75-7.47-4.75V45.53c0-3.21,3.41-5,3.41-5L77.54,7s1.35.79-8.25-4.76A12.87,12.87,0,0,0,62.78.48a16.18,16.18,0,0,0-8.51,2.6" transform="translate(-0.72 -0.48)"/></g><g id="SANTAN_eCORP" data-name="SANTAN eCORP"><path class="cls-2" d="M20.29,82.75" transform="translate(-0.72 -0.48)"/><path class="cls-2" d="M20.6,82.78" transform="translate(-0.72 -0.48)"/></g></svg>